<?xml version="1.0" encoding="UTF-8" standalone="no" ?>
<!DOCTYPE svg PUBLIC "-//W3C//DTD SVG 1.1//EN" "http://www.w3.org/Graphics/SVG/1.1/DTD/svg11.dtd">
<svg xmlns="http://www.w3.org/2000/svg" xmlns:xlink="http://www.w3.org/1999/xlink" version="1.1" width="1080" height="1080" viewBox="0 0 1080 1080" xml:space="preserve">
<desc>Created with Fabric.js 4.2.0</desc>
<defs>
</defs>
<rect x="0" y="0" width="100%" height="100%" fill="transparent"></rect>
<g transform="matrix(1 0 0 1 540 540)" id="f9358bc8-083a-46cb-8ba5-c349d9e943f5"  >
<rect style="stroke: none; stroke-width: 1; stroke-dasharray: none; stroke-linecap: butt; stroke-dashoffset: 0; stroke-linejoin: miter; stroke-miterlimit: 4; fill: rgb(255,255,255); fill-rule: nonzero; opacity: 1;" vector-effect="non-scaling-stroke"  x="-540" y="-540" rx="0" ry="0" width="1080" height="1080" />
</g>
<g transform="matrix(1 0 0 1 540 540)" id="67faac0f-70c3-4611-aa4d-9f12c68866ce"  >
</g>
<g transform="matrix(0.94 0 0 0.9 540 616.72)" id="_bt036DyTEQ5yB-lJ75Tqu"  >
<path style="stroke: none; stroke-width: 1; stroke-dasharray: none; stroke-linecap: butt; stroke-dashoffset: 0; stroke-linejoin: miter; stroke-miterlimit: 4; fill: rgb(58,58,58); fill-rule: nonzero; opacity: 1;" vector-effect="non-scaling-stroke"  transform=" translate(-0.3, 36.9)" d="M -217.45000000000007 -70 L -201.95000000000007 -70 L -224.85000000000008 0 L -242.25000000000006 0 L -257.6500000000001 -47.4 L -273.55000000000007 0 L -290.8500000000001 0 L -313.8500000000001 -70 L -297.05000000000007 -70 L -281.25000000000006 -20.8 L -264.75000000000006 -70 L -249.75000000000006 -70 L -233.75000000000006 -20.4 L -217.45000000000007 -70 Z M -172.45000000000005 0.8 Q -180.95000000000005 0.8 -187.70000000000005 -2.75 Q -194.45000000000005 -6.3 -198.25000000000006 -12.6 Q -202.05000000000007 -18.9 -202.05000000000007 -26.9 L -202.05000000000007 -26.9 Q -202.05000000000007 -34.9 -198.25000000000006 -41.2 Q -194.45000000000005 -47.5 -187.70000000000005 -51.05 Q -180.95000000000005 -54.6 -172.45000000000005 -54.6 L -172.45000000000005 -54.6 Q -163.95000000000005 -54.6 -157.25000000000006 -51.05 Q -150.55000000000007 -47.5 -146.75000000000006 -41.2 Q -142.95000000000005 -34.9 -142.95000000000005 -26.9 L -142.95000000000005 -26.9 Q -142.95000000000005 -18.9 -146.75000000000006 -12.6 Q -150.55000000000007 -6.3 -157.25000000000006 -2.75 Q -163.95000000000005 0.8 -172.45000000000005 0.8 L -172.45000000000005 0.8 Z M -172.45000000000005 -12 Q -166.45000000000005 -12 -162.60000000000005 -16.05 Q -158.75000000000006 -20.1 -158.75000000000006 -26.9 L -158.75000000000006 -26.9 Q -158.75000000000006 -33.7 -162.60000000000005 -37.75 Q -166.45000000000005 -41.8 -172.45000000000005 -41.8 L -172.45000000000005 -41.8 Q -178.45000000000005 -41.8 -182.35000000000005 -37.75 Q -186.25000000000006 -33.7 -186.25000000000006 -26.9 L -186.25000000000006 -26.9 Q -186.25000000000006 -20.1 -182.35000000000005 -16.05 Q -178.45000000000005 -12 -172.45000000000005 -12 L -172.45000000000005 -12 Z M -99.85000000000005 -54.6 Q -89.85000000000005 -54.6 -83.70000000000006 -48.6 Q -77.55000000000005 -42.6 -77.55000000000005 -30.8 L -77.55000000000005 -30.8 L -77.55000000000005 0 L -93.15000000000006 0 L -93.15000000000006 -28.4 Q -93.15000000000006 -34.8 -95.95000000000006 -37.95 Q -98.75000000000006 -41.1 -104.05000000000005 -41.1 L -104.05000000000005 -41.1 Q -109.95000000000006 -41.1 -113.45000000000006 -37.45 Q -116.95000000000006 -33.8 -116.95000000000006 -26.6 L -116.95000000000006 -26.6 L -116.95000000000006 0 L -132.55000000000007 0 L -132.55000000000007 -53.8 L -117.65000000000006 -53.8 L -117.65000000000006 -47.5 Q -114.55000000000005 -50.9 -109.95000000000006 -52.75 Q -105.35000000000005 -54.6 -99.85000000000005 -54.6 L -99.85000000000005 -54.6 Z M -23.650000000000055 -74.2 L -8.050000000000054 -74.2 L -8.050000000000054 0 L -22.950000000000053 0 L -22.950000000000053 -6.2 Q -28.750000000000057 0.8 -39.75000000000006 0.8 L -39.75000000000006 0.8 Q -47.35000000000005 0.8 -53.50000000000006 -2.6 Q -59.650000000000055 -6 -63.150000000000055 -12.3 Q -66.65000000000005 -18.6 -66.65000000000005 -26.9 L -66.65000000000005 -26.9 Q -66.65000000000005 -35.2 -63.150000000000055 -41.5 Q -59.650000000000055 -47.8 -53.50000000000006 -51.2 Q -47.35000000000005 -54.6 -39.75000000000006 -54.6 L -39.75000000000006 -54.6 Q -29.450000000000053 -54.6 -23.650000000000055 -48.1 L -23.650000000000055 -48.1 L -23.650000000000055 -74.2 Z M -37.050000000000054 -12 Q -31.150000000000055 -12 -27.250000000000057 -16.05 Q -23.35000000000005 -20.1 -23.35000000000005 -26.9 L -23.35000000000005 -26.9 Q -23.35000000000005 -33.7 -27.250000000000057 -37.75 Q -31.150000000000055 -41.8 -37.050000000000054 -41.8 L -37.050000000000054 -41.8 Q -43.050000000000054 -41.8 -46.95000000000005 -37.75 Q -50.85000000000005 -33.7 -50.85000000000005 -26.9 L -50.85000000000005 -26.9 Q -50.85000000000005 -20.1 -46.95000000000005 -16.05 Q -43.050000000000054 -12 -37.050000000000054 -12 L -37.050000000000054 -12 Z M 59.04999999999995 -26.7 Q 59.04999999999995 -26.4 58.74999999999995 -22.5 L 58.74999999999995 -22.5 L 18.049999999999947 -22.5 Q 19.14999999999995 -17.5 23.24999999999995 -14.6 Q 27.349999999999948 -11.7 33.449999999999946 -11.7 L 33.449999999999946 -11.7 Q 37.64999999999995 -11.7 40.89999999999995 -12.95 Q 44.14999999999995 -14.2 46.949999999999946 -16.9 L 46.949999999999946 -16.9 L 55.24999999999995 -7.9 Q 47.64999999999995 0.8 33.04999999999995 0.8 L 33.04999999999995 0.8 Q 23.94999999999995 0.8 16.94999999999995 -2.75 Q 9.94999999999995 -6.3 6.149999999999949 -12.6 Q 2.349999999999949 -18.9 2.349999999999949 -26.9 L 2.349999999999949 -26.9 Q 2.349999999999949 -34.8 6.099999999999949 -41.15 Q 9.849999999999948 -47.5 16.39999999999995 -51.05 Q 22.94999999999995 -54.6 31.049999999999947 -54.6 L 31.049999999999947 -54.6 Q 38.949999999999946 -54.6 45.34999999999995 -51.2 Q 51.74999999999995 -47.8 55.39999999999995 -41.45 Q 59.04999999999995 -35.1 59.04999999999995 -26.7 L 59.04999999999995 -26.7 Z M 31.14999999999995 -42.8 Q 25.849999999999948 -42.8 22.24999999999995 -39.8 Q 18.64999999999995 -36.8 17.849999999999948 -31.6 L 17.849999999999948 -31.6 L 44.34999999999995 -31.6 Q 43.54999999999995 -36.7 39.949999999999946 -39.75 Q 36.34999999999995 -42.8 31.14999999999995 -42.8 L 31.14999999999995 -42.8 Z M 84.34999999999994 -46.7 Q 87.14999999999995 -50.6 91.89999999999995 -52.6 Q 96.64999999999995 -54.6 102.84999999999994 -54.6 L 102.84999999999994 -54.6 L 102.84999999999994 -40.2 Q 100.24999999999994 -40.4 99.34999999999994 -40.4 L 99.34999999999994 -40.4 Q 92.64999999999995 -40.4 88.84999999999994 -36.65 Q 85.04999999999994 -32.9 85.04999999999994 -25.4 L 85.04999999999994 -25.4 L 85.04999999999994 0 L 69.44999999999995 0 L 69.44999999999995 -53.8 L 84.34999999999994 -53.8 L 84.34999999999994 -46.7 Z M 135.84999999999997 1.2 Q 127.54999999999995 1.2 119.79999999999995 -1.05 Q 112.04999999999995 -3.3 107.34999999999995 -6.9 L 107.34999999999995 -6.9 L 112.84999999999995 -19.1 Q 117.34999999999995 -15.8 123.54999999999995 -13.8 Q 129.74999999999994 -11.8 135.94999999999996 -11.8 L 135.94999999999996 -11.8 Q 142.84999999999997 -11.8 146.14999999999995 -13.85 Q 149.44999999999996 -15.9 149.44999999999996 -19.3 L 149.44999999999996 -19.3 Q 149.44999999999996 -21.8 147.49999999999994 -23.45 Q 145.54999999999995 -25.1 142.49999999999994 -26.1 Q 139.44999999999996 -27.1 134.24999999999994 -28.3 L 134.24999999999994 -28.3 Q 126.24999999999996 -30.2 121.14999999999995 -32.1 Q 116.04999999999995 -34 112.39999999999995 -38.2 Q 108.74999999999996 -42.4 108.74999999999996 -49.4 L 108.74999999999996 -49.4 Q 108.74999999999996 -55.5 112.04999999999995 -60.45 Q 115.34999999999995 -65.4 121.99999999999996 -68.3 Q 128.64999999999995 -71.2 138.24999999999994 -71.2 L 138.24999999999994 -71.2 Q 144.94999999999996 -71.2 151.34999999999997 -69.6 Q 157.74999999999994 -68 162.54999999999995 -65 L 162.54999999999995 -65 L 157.54999999999995 -52.7 Q 147.84999999999997 -58.2 138.14999999999995 -58.2 L 138.14999999999995 -58.2 Q 131.34999999999997 -58.2 128.09999999999997 -56 Q 124.84999999999995 -53.8 124.84999999999995 -50.2 L 124.84999999999995 -50.2 Q 124.84999999999995 -46.6 128.59999999999997 -44.85 Q 132.34999999999997 -43.1 140.04999999999995 -41.4 L 140.04999999999995 -41.4 Q 148.04999999999995 -39.5 153.14999999999995 -37.6 Q 158.24999999999994 -35.7 161.89999999999995 -31.6 Q 165.54999999999995 -27.5 165.54999999999995 -20.5 L 165.54999999999995 -20.5 Q 165.54999999999995 -14.5 162.19999999999996 -9.55 Q 158.84999999999997 -4.6 152.14999999999995 -1.7 Q 145.44999999999996 1.2 135.84999999999997 1.2 L 135.84999999999997 1.2 Z M 201.14999999999998 0.8 Q 192.64999999999998 0.8 185.89999999999998 -2.75 Q 179.14999999999998 -6.3 175.34999999999997 -12.6 Q 171.54999999999995 -18.9 171.54999999999995 -26.9 L 171.54999999999995 -26.9 Q 171.54999999999995 -34.9 175.34999999999997 -41.2 Q 179.14999999999998 -47.5 185.89999999999998 -51.05 Q 192.64999999999998 -54.6 201.14999999999998 -54.6 L 201.14999999999998 -54.6 Q 209.64999999999998 -54.6 216.34999999999997 -51.05 Q 223.04999999999995 -47.5 226.84999999999997 -41.2 Q 230.64999999999998 -34.9 230.64999999999998 -26.9 L 230.64999999999998 -26.9 Q 230.64999999999998 -18.9 226.84999999999997 -12.6 Q 223.04999999999995 -6.3 216.34999999999997 -2.75 Q 209.64999999999998 0.8 201.14999999999998 0.8 L 201.14999999999998 0.8 Z M 201.14999999999998 -12 Q 207.14999999999998 -12 210.99999999999997 -16.05 Q 214.84999999999997 -20.1 214.84999999999997 -26.9 L 214.84999999999997 -26.9 Q 214.84999999999997 -33.7 210.99999999999997 -37.75 Q 207.14999999999998 -41.8 201.14999999999998 -41.8 L 201.14999999999998 -41.8 Q 195.14999999999998 -41.8 191.24999999999997 -37.75 Q 187.34999999999997 -33.7 187.34999999999997 -26.9 L 187.34999999999997 -26.9 Q 187.34999999999997 -20.1 191.24999999999997 -16.05 Q 195.14999999999998 -12 201.14999999999998 -12 L 201.14999999999998 -12 Z M 258.15 -54.9 L 258.15 -52.6 L 271.95 -52.6 L 271.95 -40.6 L 258.54999999999995 -40.6 L 258.54999999999995 0 L 242.94999999999996 0 L 242.94999999999996 -40.6 L 234.64999999999998 -40.6 L 234.64999999999998 -52.6 L 242.94999999999996 -52.6 L 242.94999999999996 -55 Q 242.94999999999996 -64.2 248.39999999999998 -69.6 Q 253.84999999999997 -75 263.74999999999994 -75 L 263.74999999999994 -75 Q 267.24999999999994 -75 270.4 -74.25 Q 273.54999999999995 -73.5 275.65 -72.1 L 275.65 -72.1 L 271.54999999999995 -60.8 Q 268.84999999999997 -62.7 265.24999999999994 -62.7 L 265.24999999999994 -62.7 Q 258.15 -62.7 258.15 -54.9 L 258.15 -54.9 Z M 310.24999999999994 -13.6 L 314.44999999999993 -2.6 Q 312.15 -0.9 308.79999999999995 -0.05 Q 305.44999999999993 0.8 301.74999999999994 0.8 L 301.74999999999994 0.8 Q 292.15 0.8 286.9 -4.1 Q 281.65 -9 281.65 -18.5 L 281.65 -18.5 L 281.65 -40.6 L 273.34999999999997 -40.6 L 273.34999999999997 -52.6 L 281.65 -52.6 L 281.65 -65.7 L 297.24999999999994 -65.7 L 297.24999999999994 -52.6 L 310.65 -52.6 L 310.65 -40.6 L 297.24999999999994 -40.6 L 297.24999999999994 -18.7 Q 297.24999999999994 -15.3 298.99999999999994 -13.45 Q 300.74999999999994 -11.6 303.94999999999993 -11.6 L 303.94999999999993 -11.6 Q 307.65 -11.6 310.24999999999994 -13.6 L 310.24999999999994 -13.6 Z" stroke-linecap="round" />
</g>
<g transform="matrix(0.55 0 0 0.53 540 713.43)" id="_eha1ai78l_2"  >
<path style="stroke: none; stroke-width: 1; stroke-dasharray: none; stroke-linecap: butt; stroke-dashoffset: 0; stroke-linejoin: miter; stroke-miterlimit: 4; fill: rgb(0,0,0); fill-rule: nonzero; opacity: 1;" vector-effect="non-scaling-stroke"  transform=" translate(-1.26, 18)" d="M -195.5165625 0 L -195.5165625 -34.27 L -185.8365625 -34.27 Q -179.0165625 -34.27 -175.9665625 -32.23 Q -172.9265625 -30.19 -172.9265625 -25.78 L -172.9265625 -25.78 Q -172.9265625 -22.73 -174.6165625 -20.75 Q -176.3165625 -18.77 -179.5765625 -18.19 L -179.5765625 -18.19 L -179.5765625 -17.95 Q -171.7765625 -16.62 -171.7765625 -9.75 L -171.7765625 -9.75 Q -171.7765625 -5.16 -174.8765625 -2.58 Q -177.9865625 0 -183.5665625 0 L -183.5665625 0 L -195.5165625 0 Z M -191.5265625 -30.82 L -191.5265625 -19.59 L -184.9665625 -19.59 Q -180.7465625 -19.59 -178.89656250000002 -20.92 Q -177.0465625 -22.24 -177.0465625 -25.38 L -177.0465625 -25.38 Q -177.0465625 -28.27 -179.1065625 -29.54 Q -181.1765625 -30.82 -185.6765625 -30.82 L -185.6765625 -30.82 L -191.5265625 -30.82 Z M -184.7065625 -16.22 L -191.5265625 -16.22 L -191.5265625 -3.4 L -184.3865625 -3.4 Q -180.2365625 -3.4 -178.1365625 -5 Q -176.0365625 -6.61 -176.0365625 -10.03 L -176.0365625 -10.03 Q -176.0365625 -13.22 -178.1865625 -14.72 Q -180.3265625 -16.22 -184.7065625 -16.22 L -184.7065625 -16.22 Z M -159.285 -25.69 L -155.345 -25.69 L -155.345 -9.02 Q -155.345 -5.88 -153.915 -4.34 Q -152.485 -2.79 -149.435 -2.79 L -149.435 -2.79 Q -145.405 -2.79 -143.54500000000002 -4.99 Q -141.675 -7.2 -141.675 -12.19 L -141.675 -12.19 L -141.675 -25.69 L -137.785 -25.69 L -137.785 0 L -140.995 0 L -141.565 -3.45 L -141.775 -3.45 Q -142.965 -1.55 -145.085 -0.54 Q -147.215 0.47 -149.925 0.47 L -149.925 0.47 Q -154.615 0.47 -156.945 -1.76 Q -159.285 -3.98 -159.285 -8.88 L -159.285 -8.88 L -159.285 -25.69 Z M -119.6440625 -25.69 L -119.6440625 0 L -123.5340625 0 L -123.5340625 -25.69 L -119.6440625 -25.69 Z M -123.8640625 -32.65 L -123.8640625 -32.65 Q -123.8640625 -33.98 -123.2140625 -34.61 Q -122.5540625 -35.23 -121.5740625 -35.23 L -121.5740625 -35.23 Q -120.6340625 -35.23 -119.9540625 -34.59 Q -119.2740625 -33.96 -119.2740625 -32.65 L -119.2740625 -32.65 Q -119.2740625 -31.34 -119.9540625 -30.69 Q -120.6340625 -30.05 -121.5740625 -30.05 L -121.5740625 -30.05 Q -122.5540625 -30.05 -123.2140625 -30.69 Q -123.8640625 -31.34 -123.8640625 -32.65 Z M -101.5034375 -36.47 L -101.5034375 0 L -105.3934375 0 L -105.3934375 -36.47 L -101.5034375 -36.47 Z M -69.2528125 0 L -69.7728125 -3.45 L -69.9828125 -3.45 Q -72.6828125 0.47 -78.0428125 0.47 L -78.0428125 0.47 Q -83.0828125 0.47 -85.8828125 -2.98 Q -88.6828125 -6.42 -88.6828125 -12.77 L -88.6828125 -12.77 Q -88.6828125 -19.13 -85.8728125 -22.64 Q -83.0628125 -26.16 -78.0428125 -26.16 L -78.0428125 -26.16 Q -72.8228125 -26.16 -70.0328125 -22.36 L -70.0328125 -22.36 L -69.7228125 -22.36 L -69.8928125 -24.21 L -69.9828125 -26.02 L -69.9828125 -36.47 L -66.09281250000001 -36.47 L -66.09281250000001 0 L -69.2528125 0 Z M -77.5528125 -2.79 L -77.5528125 -2.79 Q -73.5728125 -2.79 -71.7728125 -4.96 Q -69.9828125 -7.13 -69.9828125 -11.95 L -69.9828125 -11.95 L -69.9828125 -12.77 Q -69.9828125 -18.23 -71.8028125 -20.57 Q -73.6128125 -22.9 -77.6028125 -22.9 L -77.6028125 -22.9 Q -81.0228125 -22.9 -82.84281250000001 -20.24 Q -84.6528125 -17.58 -84.6528125 -12.73 L -84.6528125 -12.73 Q -84.6528125 -7.8 -82.8528125 -5.3 Q -81.0428125 -2.79 -77.5528125 -2.79 Z M 6.280000000000001 -34.27 L -2.8800000000000026 0 L -6.82 0 L -13.73 -22.95 Q -14.23 -24.47 -14.84 -26.79 Q -15.45 -29.11 -15.469999999999999 -29.58 L -15.469999999999999 -29.58 Q -15.98 -26.48 -17.11 -22.8 L -17.11 -22.8 L -23.810000000000002 0 L -27.75 0 L -36.87 -34.27 L -32.65 -34.27 L -27.23 -13.1 Q -26.11 -8.65 -25.59 -5.04 L -25.59 -5.04 Q -24.96 -9.33 -23.72 -13.43 L -23.72 -13.43 L -17.58 -34.27 L -13.36 -34.27 L -6.91 -13.24 Q -5.789999999999999 -9.61 -5.020000000000003 -5.04 L -5.020000000000003 -5.04 Q -4.57 -8.37 -3.3299999999999983 -13.15 L -3.3299999999999983 -13.15 L 2.0600000000000023 -34.27 L 6.280000000000001 -34.27 Z M 39.2375 -12.87 L 39.2375 -12.87 Q 39.2375 -6.59 36.067499999999995 -3.06 Q 32.9075 0.47 27.3275 0.47 L 27.3275 0.47 Q 23.8875 0.47 21.2075 -1.15 Q 18.5375 -2.77 17.0875 -5.79 Q 15.6375 -8.81 15.6375 -12.87 L 15.6375 -12.87 Q 15.6375 -19.15 18.7775 -22.65 Q 21.9175 -26.16 27.4875 -26.16 L 27.4875 -26.16 Q 32.8875 -26.16 36.057500000000005 -22.57 Q 39.2375 -18.98 39.2375 -12.87 Z M 19.6675 -12.87 L 19.6675 -12.87 Q 19.6675 -7.95 21.6375 -5.37 Q 23.5975 -2.79 27.4175 -2.79 L 27.4175 -2.79 Q 31.2375 -2.79 33.2275 -5.36 Q 35.207499999999996 -7.92 35.207499999999996 -12.87 L 35.207499999999996 -12.87 Q 35.207499999999996 -17.77 33.2275 -20.31 Q 31.2375 -22.85 27.377499999999998 -22.85 L 27.377499999999998 -22.85 Q 23.557499999999997 -22.85 21.6075 -20.34 Q 19.6675 -17.84 19.6675 -12.87 Z M 73.5196875 0 L 69.6296875 0 L 69.6296875 -16.62 Q 69.6296875 -19.76 68.1996875 -21.3 Q 66.7696875 -22.85 63.7296875 -22.85 L 63.7296875 -22.85 Q 59.699687499999996 -22.85 57.8196875 -20.67 Q 55.949687499999996 -18.49 55.949687499999996 -13.48 L 55.949687499999996 -13.48 L 55.949687499999996 0 L 52.0596875 0 L 52.0596875 -25.69 L 55.2196875 -25.69 L 55.8496875 -22.17 L 56.0396875 -22.17 Q 57.2296875 -24.07 59.3896875 -25.11 Q 61.5496875 -26.16 64.1996875 -26.16 L 64.1996875 -26.16 Q 68.8396875 -26.16 71.1796875 -23.92 Q 73.5196875 -21.68 73.5196875 -16.76 L 73.5196875 -16.76 L 73.5196875 0 Z M 105.520625 0 L 105.000625 -3.45 L 104.790625 -3.45 Q 102.090625 0.47 96.730625 0.47 L 96.730625 0.47 Q 91.690625 0.47 88.890625 -2.98 Q 86.090625 -6.42 86.090625 -12.77 L 86.090625 -12.77 Q 86.090625 -19.13 88.900625 -22.64 Q 91.710625 -26.16 96.730625 -26.16 L 96.730625 -26.16 Q 101.950625 -26.16 104.740625 -22.36 L 104.740625 -22.36 L 105.050625 -22.36 L 104.880625 -24.21 L 104.790625 -26.02 L 104.790625 -36.47 L 108.68062499999999 -36.47 L 108.68062499999999 0 L 105.520625 0 Z M 97.220625 -2.79 L 97.220625 -2.79 Q 101.200625 -2.79 103.000625 -4.96 Q 104.790625 -7.13 104.790625 -11.95 L 104.790625 -11.95 L 104.790625 -12.77 Q 104.790625 -18.23 102.970625 -20.57 Q 101.160625 -22.9 97.170625 -22.9 L 97.170625 -22.9 Q 93.750625 -22.9 91.93062499999999 -20.24 Q 90.120625 -17.58 90.120625 -12.73 L 90.120625 -12.73 Q 90.120625 -7.8 91.920625 -5.3 Q 93.730625 -2.79 97.220625 -2.79 Z M 133.7846875 0.47 L 133.7846875 0.47 Q 128.0846875 0.47 124.7946875 -3 Q 121.5046875 -6.47 121.5046875 -12.63 L 121.5046875 -12.63 Q 121.5046875 -18.84 124.5546875 -22.5 Q 127.6146875 -26.16 132.7746875 -26.16 L 132.7746875 -26.16 Q 137.6046875 -26.16 140.4146875 -22.98 Q 143.22468750000002 -19.8 143.22468750000002 -14.6 L 143.22468750000002 -14.6 L 143.22468750000002 -12.14 L 125.5346875 -12.14 Q 125.6446875 -7.62 127.8146875 -5.27 Q 129.9846875 -2.93 133.9246875 -2.93 L 133.9246875 -2.93 Q 138.0746875 -2.93 142.1246875 -4.66 L 142.1246875 -4.66 L 142.1246875 -1.2 Q 140.0646875 -0.3 138.22468750000002 0.08 Q 136.38468749999998 0.47 133.7846875 0.47 Z M 132.7246875 -22.9 L 132.7246875 -22.9 Q 129.6346875 -22.9 127.7946875 -20.88 Q 125.9546875 -18.87 125.6246875 -15.3 L 125.6246875 -15.3 L 139.0546875 -15.3 Q 139.0546875 -18.98 137.4146875 -20.94 Q 135.7746875 -22.9 132.7246875 -22.9 Z M 167.574375 -26.16 L 167.574375 -26.16 Q 169.284375 -26.16 170.644375 -25.88 L 170.644375 -25.88 L 170.114375 -22.27 Q 168.514375 -22.62 167.294375 -22.62 L 167.294375 -22.62 Q 164.184375 -22.62 161.964375 -20.09 Q 159.754375 -17.55 159.754375 -13.78 L 159.754375 -13.78 L 159.754375 0 L 155.864375 0 L 155.864375 -25.69 L 159.074375 -25.69 L 159.514375 -20.93 L 159.704375 -20.93 Q 161.134375 -23.44 163.144375 -24.8 Q 165.164375 -26.16 167.574375 -26.16 Z M 198.028125 -7.01 L 198.028125 -7.01 Q 198.028125 -3.42 195.348125 -1.48 Q 192.678125 0.47 187.848125 0.47 L 187.848125 0.47 Q 182.738125 0.47 179.878125 -1.15 L 179.878125 -1.15 L 179.878125 -4.76 Q 181.738125 -3.82 183.858125 -3.28 Q 185.978125 -2.74 187.948125 -2.74 L 187.948125 -2.74 Q 190.988125 -2.74 192.628125 -3.71 Q 194.278125 -4.69 194.278125 -6.68 L 194.278125 -6.68 Q 194.278125 -8.18 192.968125 -9.25 Q 191.668125 -10.31 187.898125 -11.77 L 187.898125 -11.77 Q 184.308125 -13.1 182.798125 -14.1 Q 181.288125 -15.09 180.548125 -16.36 Q 179.808125 -17.63 179.808125 -19.38 L 179.808125 -19.38 Q 179.808125 -22.52 182.368125 -24.34 Q 184.918125 -26.16 189.378125 -26.16 L 189.378125 -26.16 Q 193.528125 -26.16 197.488125 -24.47 L 197.488125 -24.47 L 196.098125 -21.3 Q 192.238125 -22.9 189.098125 -22.9 L 189.098125 -22.9 Q 186.328125 -22.9 184.918125 -22.03 Q 183.518125 -21.16 183.518125 -19.64 L 183.518125 -19.64 Q 183.518125 -18.61 184.038125 -17.88 Q 184.568125 -17.16 185.738125 -16.5 Q 186.918125 -15.84 190.238125 -14.6 L 190.238125 -14.6 Q 194.808125 -12.94 196.418125 -11.25 Q 198.028125 -9.56 198.028125 -7.01 Z" stroke-linecap="round" />
</g>
<g transform="matrix(1.58 0 0 1.58 540 422.61)"  >
<g style="" vector-effect="non-scaling-stroke"   >
		<g transform="matrix(1.72 0 0 1.72 7.42 1.02)"  >
<path style="stroke: none; stroke-width: 1; stroke-dasharray: none; stroke-linecap: butt; stroke-dashoffset: 0; stroke-linejoin: miter; stroke-miterlimit: 4; fill: rgb(36,179,171); fill-rule: evenodd; opacity: 1;" vector-effect="non-scaling-stroke"  transform=" translate(-54.89, -50.82)" d="M 30.568 33.979 C 31.406000000000002 35.452 32.208 36.857 33.008 38.266 C 35.283 42.272 37.553000000000004 46.281 39.842 50.28 C 39.961999999999996 50.489000000000004 40.214999999999996 50.695 40.443999999999996 50.758 C 52.831999999999994 54.129000000000005 65.22399999999999 57.485 77.61699999999999 60.836 C 77.95199999999998 60.927 78.166 61.079 78.329 61.407 C 79.27 63.31099999999999 80.243 65.201 81.20299999999999 67.095 C 81.28099999999999 67.25 81.35199999999999 67.41199999999999 81.47299999999998 67.669 C 80.75099999999999 67.509 80.11399999999999 67.372 79.47899999999998 67.225 C 65.92899999999999 64.074 52.380999999999986 60.92099999999999 38.83099999999998 57.77499999999999 C 38.50799999999998 57.70099999999999 38.30299999999998 57.55799999999999 38.149999999999984 57.24699999999999 C 34.91299999999998 50.70399999999999 31.667999999999985 44.16499999999999 28.411999999999985 37.63199999999999 C 28.258999999999986 37.32499999999999 28.273999999999983 37.12099999999999 28.477999999999984 36.849999999999994 C 29.17 35.931 29.835 34.99 30.568 33.979 z" stroke-linecap="round" />
</g>
		<g transform="matrix(1.81 0 0 1.81 5.06 15.69)"  >
<path style="stroke: none; stroke-width: 1; stroke-dasharray: none; stroke-linecap: butt; stroke-dashoffset: 0; stroke-linejoin: miter; stroke-miterlimit: 4; fill: rgb(26,145,139); fill-rule: evenodd; opacity: 1;" vector-effect="non-scaling-stroke"  transform=" translate(-52.36, -58.36)" d="M 26.162 40.06 C 26.394 40.575 26.595 41.012 26.787 41.452000000000005 C 30.064999999999998 48.92 33.346 56.386 36.611999999999995 63.86000000000001 C 36.751999999999995 64.179 36.922 64.33300000000001 37.26 64.39800000000001 C 41.814 65.28000000000002 46.366 66.17200000000001 50.918 67.06500000000001 C 57.299 68.31500000000001 63.68 69.56800000000001 70.062 70.81900000000002 C 73.29299999999999 71.45300000000002 76.523 72.08700000000002 79.75399999999999 72.72000000000001 C 79.94 72.75500000000001 80.12499999999999 72.80100000000002 80.442 72.87100000000001 C 80.199 72.98400000000001 80.064 73.052 79.92699999999999 73.10700000000001 C 77.181 74.23000000000002 74.42099999999999 75.32500000000002 71.695 76.49000000000001 C 70.95299999999999 76.807 70.28899999999999 76.58200000000001 69.60499999999999 76.47600000000001 C 64.15799999999999 75.61900000000001 58.71199999999999 74.73500000000001 53.26699999999999 73.86100000000002 C 47.38799999999999 72.91700000000002 41.50999999999999 71.97000000000001 35.630999999999986 71.03300000000002 C 35.32199999999999 70.98500000000001 35.167999999999985 70.84700000000001 35.051999999999985 70.55200000000002 C 31.494999999999987 61.41100000000002 27.928999999999984 52.276000000000025 24.355999999999987 43.142000000000024 C 24.250999999999987 42.87100000000002 24.247999999999987 42.681000000000026 24.434999999999988 42.43600000000002 C 25.011 41.679 25.557 40.897 26.162 40.06 z" stroke-linecap="round" />
</g>
		<g transform="matrix(1.81 0 0 1.81 7.05 -16.15)"  >
<path style="stroke: none; stroke-width: 1; stroke-dasharray: none; stroke-linecap: butt; stroke-dashoffset: 0; stroke-linejoin: miter; stroke-miterlimit: 4; fill: rgb(52,209,201); fill-rule: evenodd; opacity: 1;" vector-effect="non-scaling-stroke"  transform=" translate(-53.82, -40.21)" d="M 74.473 53.847 C 73.127 53.432 71.90899999999999 53.058 70.691 52.679 C 61.231 49.736000000000004 51.774 46.789 42.31100000000001 43.859 C 41.86000000000001 43.72 41.56900000000001 43.494 41.31300000000001 43.102000000000004 C 38.665000000000006 39.035000000000004 36.00200000000001 34.977000000000004 33.32800000000001 30.927000000000003 C 33.12100000000001 30.615000000000002 33.12500000000001 30.423000000000002 33.34700000000001 30.128000000000004 C 34.214000000000006 28.973000000000003 35.05000000000001 27.795 35.94200000000001 26.565000000000005 C 36.06900000000001 26.720000000000006 36.17700000000001 26.847000000000005 36.28000000000001 26.979000000000006 C 38.57900000000001 29.964000000000006 40.87400000000001 32.952000000000005 43.18400000000001 35.92700000000001 C 43.35100000000001 36.141000000000005 43.60800000000001 36.334 43.863000000000014 36.42400000000001 C 52.512000000000015 39.49000000000001 61.164000000000016 42.54600000000001 69.82300000000001 45.58800000000001 C 70.25900000000001 45.74100000000001 70.513 45.98000000000001 70.71600000000001 46.385000000000005 C 71.858 48.679 73.02600000000001 50.96000000000001 74.18400000000001 53.246 C 74.263 53.404 74.336 53.564 74.473 53.847 z" stroke-linecap="round" />
</g>
		<g transform="matrix(1.81 0 0 1.81 -15.55 27.58)"  >
<path style="stroke: none; stroke-width: 1; stroke-dasharray: none; stroke-linecap: butt; stroke-dashoffset: 0; stroke-linejoin: miter; stroke-miterlimit: 4; fill: rgb(16,105,100); fill-rule: evenodd; opacity: 1;" vector-effect="non-scaling-stroke"  transform=" translate(-40.99, -65.19)" d="M 22.501 45.12 C 23.045 46.674 23.554000000000002 48.122 24.062 49.571999999999996 C 27.227 58.629999999999995 30.395000000000003 67.68799999999999 33.551 76.75 C 33.685 77.135 33.858000000000004 77.292 34.28 77.343 C 38.082 77.803 41.882000000000005 78.292 45.681 78.778 C 49.641 79.283 53.601 79.79400000000001 57.562 80.299 C 58.449 80.412 59.333 80.51400000000001 60.218999999999994 80.626 C 60.45099999999999 80.656 60.681999999999995 80.70100000000001 61.062999999999995 80.765 C 60.791 80.891 60.657 80.96 60.516 81.018 C 57.199 82.372 53.873999999999995 83.711 50.569 85.094 C 49.908 85.371 49.288000000000004 85.20599999999999 48.658 85.154 C 45.277 84.857 41.9 84.52799999999999 38.522000000000006 84.208 C 36.517 84.018 34.51200000000001 83.832 32.510000000000005 83.614 C 32.357000000000006 83.599 32.15200000000001 83.369 32.098000000000006 83.2 C 31.196000000000005 80.37400000000001 30.316000000000006 77.542 29.426000000000005 74.712 C 26.622000000000007 65.789 23.818000000000005 56.867000000000004 20.997000000000007 47.95100000000001 C 20.869000000000007 47.54500000000001 20.903000000000006 47.263000000000005 21.16400000000001 46.93800000000001 C 21.611 46.38 22.012 45.791 22.501 45.12 z" stroke-linecap="round" />
</g>
		<g transform="matrix(1.81 0 0 1.81 5.98 -40.52)"  >
<path style="stroke: none; stroke-width: 1; stroke-dasharray: none; stroke-linecap: butt; stroke-dashoffset: 0; stroke-linejoin: miter; stroke-miterlimit: 4; fill: rgb(52,209,201); fill-rule: evenodd; opacity: 1;" vector-effect="non-scaling-stroke"  transform=" translate(-52.53, -27.19)" d="M 42.671 17.277 C 44.003 18.451 45.249 19.593 46.548 20.672 C 47.023 21.067 47.601 21.361 48.17 21.615000000000002 C 52.287 23.454 56.410000000000004 25.274 60.536 27.092000000000002 C 60.876000000000005 27.242 61.114000000000004 27.444000000000003 61.286 27.788000000000004 C 62.777 30.760000000000005 64.288 33.721000000000004 65.792 36.685 C 65.85000000000001 36.799 65.895 36.92 65.97800000000001 37.108000000000004 C 65.792 37.050000000000004 65.66100000000002 37.02 65.53600000000002 36.970000000000006 C 58.87400000000002 34.328 52.213000000000015 31.685000000000006 45.555000000000014 29.036000000000005 C 45.35100000000001 28.955000000000005 45.137000000000015 28.840000000000003 44.98900000000001 28.682000000000006 C 43.06600000000001 26.609000000000005 41.15400000000001 24.527000000000005 39.23900000000001 22.446000000000005 C 39.18500000000001 22.388000000000005 39.14100000000001 22.321000000000005 39.07700000000001 22.235000000000007 C 40.269 20.59 41.456 18.952 42.671 17.277 z" stroke-linecap="round" />
</g>
		<g transform="matrix(1.81 0 0 1.81 -38.25 38.77)"  >
<path style="stroke: none; stroke-width: 1; stroke-dasharray: none; stroke-linecap: butt; stroke-dashoffset: 0; stroke-linejoin: miter; stroke-miterlimit: 4; fill: rgb(11,77,73); fill-rule: evenodd; opacity: 1;" vector-effect="non-scaling-stroke"  transform=" translate(-28.27, -71.46)" d="M 38.015 90.19 C 35.319 91.289 32.623 92.38499999999999 29.880000000000003 93.502 C 29.537000000000003 92.22699999999999 29.201000000000004 90.996 28.873 89.764 C 25.443 76.89 22.015 64.015 18.575000000000003 51.142999999999994 C 18.485000000000003 50.80499999999999 18.516000000000002 50.556999999999995 18.739000000000004 50.297 C 18.956000000000003 50.044999999999995 19.141000000000005 49.763999999999996 19.399000000000004 49.418 C 19.768000000000004 50.705999999999996 20.112000000000005 51.897999999999996 20.450000000000003 53.092999999999996 C 23.868000000000002 65.128 27.286 77.164 30.698 89.203 C 30.781 89.497 30.904 89.62 31.219 89.64 C 33.327 89.76 35.433 89.901 37.541000000000004 90.037 C 37.698 90.04700000000001 37.854000000000006 90.07100000000001 38.010000000000005 90.09 C 38.012 90.125 38.014 90.157 38.015 90.19 z" stroke-linecap="round" />
</g>
		<g transform="matrix(1.81 0 0 1.81 3.25 -69.55)"  >
<path style="stroke: none; stroke-width: 1; stroke-dasharray: none; stroke-linecap: butt; stroke-dashoffset: 0; stroke-linejoin: miter; stroke-miterlimit: 4; fill: rgb(52,209,201); fill-rule: evenodd; opacity: 1;" vector-effect="non-scaling-stroke"  transform=" translate(-51.1, -11.53)" d="M 55.457 16.57 C 52.546 14.972 49.35 13.901 46.665 11.766 C 47.921 10.03 49.173 8.301 50.481 6.496 C 52.189 9.863 53.863 13.163 55.538000000000004 16.464 C 55.51 16.5 55.483 16.535 55.457 16.57 z" stroke-linecap="round" />
</g>
</g>
</g>
</svg>