<?xml version="1.0" encoding="UTF-8" standalone="no" ?>
<!DOCTYPE svg PUBLIC "-//W3C//DTD SVG 1.1//EN" "http://www.w3.org/Graphics/SVG/1.1/DTD/svg11.dtd">
<svg xmlns="http://www.w3.org/2000/svg" xmlns:xlink="http://www.w3.org/1999/xlink" version="1.1" width="1080" height="1080" viewBox="0 0 1080 1080" xml:space="preserve">
<desc>Created with Fabric.js 4.2.0</desc>
<defs>
</defs>
<rect x="0" y="0" width="100%" height="100%" fill="transparent"></rect>
<g transform="matrix(1 0 0 1 540 540)" id="f9358bc8-083a-46cb-8ba5-c349d9e943f5"  >
<rect style="stroke: none; stroke-width: 1; stroke-dasharray: none; stroke-linecap: butt; stroke-dashoffset: 0; stroke-linejoin: miter; stroke-miterlimit: 4; fill: rgb(255,255,255); fill-rule: nonzero; opacity: 1;" vector-effect="non-scaling-stroke"  x="-540" y="-540" rx="0" ry="0" width="1080" height="1080" />
</g>
<g transform="matrix(1 0 0 1 540 540)" id="67faac0f-70c3-4611-aa4d-9f12c68866ce"  >
</g>
<g transform="matrix(2.81 0 0 2.81 540 508.48)"  >
<g style="" vector-effect="non-scaling-stroke"   >
		<g transform="matrix(1.72 0 0 1.72 7.42 1.01)"  >
<path style="stroke: none; stroke-width: 1; stroke-dasharray: none; stroke-linecap: butt; stroke-dashoffset: 0; stroke-linejoin: miter; stroke-miterlimit: 4; fill: rgb(36,179,171); fill-rule: evenodd; opacity: 1;" vector-effect="non-scaling-stroke"  transform=" translate(-54.89, -50.82)" d="M 30.568 33.979 C 31.406000000000002 35.452 32.208 36.857 33.008 38.266 C 35.283 42.272 37.553000000000004 46.281 39.842 50.28 C 39.961999999999996 50.489000000000004 40.214999999999996 50.695 40.443999999999996 50.758 C 52.831999999999994 54.129000000000005 65.22399999999999 57.485 77.61699999999999 60.836 C 77.95199999999998 60.927 78.166 61.079 78.329 61.407 C 79.27 63.31099999999999 80.243 65.201 81.20299999999999 67.095 C 81.28099999999999 67.25 81.35199999999999 67.41199999999999 81.47299999999998 67.669 C 80.75099999999999 67.509 80.11399999999999 67.372 79.47899999999998 67.225 C 65.92899999999999 64.074 52.380999999999986 60.92099999999999 38.83099999999998 57.77499999999999 C 38.50799999999998 57.70099999999999 38.30299999999998 57.55799999999999 38.149999999999984 57.24699999999999 C 34.91299999999998 50.70399999999999 31.667999999999985 44.16499999999999 28.411999999999985 37.63199999999999 C 28.258999999999986 37.32499999999999 28.273999999999983 37.12099999999999 28.477999999999984 36.849999999999994 C 29.17 35.931 29.835 34.99 30.568 33.979 z" stroke-linecap="round" />
</g>
		<g transform="matrix(1.81 0 0 1.81 5.06 15.69)"  >
<path style="stroke: none; stroke-width: 1; stroke-dasharray: none; stroke-linecap: butt; stroke-dashoffset: 0; stroke-linejoin: miter; stroke-miterlimit: 4; fill: rgb(26,145,139); fill-rule: evenodd; opacity: 1;" vector-effect="non-scaling-stroke"  transform=" translate(-52.36, -58.36)" d="M 26.162 40.06 C 26.394 40.575 26.595 41.012 26.787 41.452000000000005 C 30.064999999999998 48.92 33.346 56.386 36.611999999999995 63.86000000000001 C 36.751999999999995 64.179 36.922 64.33300000000001 37.26 64.39800000000001 C 41.814 65.28000000000002 46.366 66.17200000000001 50.918 67.06500000000001 C 57.299 68.31500000000001 63.68 69.56800000000001 70.062 70.81900000000002 C 73.29299999999999 71.45300000000002 76.523 72.08700000000002 79.75399999999999 72.72000000000001 C 79.94 72.75500000000001 80.12499999999999 72.80100000000002 80.442 72.87100000000001 C 80.199 72.98400000000001 80.064 73.052 79.92699999999999 73.10700000000001 C 77.181 74.23000000000002 74.42099999999999 75.32500000000002 71.695 76.49000000000001 C 70.95299999999999 76.807 70.28899999999999 76.58200000000001 69.60499999999999 76.47600000000001 C 64.15799999999999 75.61900000000001 58.71199999999999 74.73500000000001 53.26699999999999 73.86100000000002 C 47.38799999999999 72.91700000000002 41.50999999999999 71.97000000000001 35.630999999999986 71.03300000000002 C 35.32199999999999 70.98500000000001 35.167999999999985 70.84700000000001 35.051999999999985 70.55200000000002 C 31.494999999999987 61.41100000000002 27.928999999999984 52.276000000000025 24.355999999999987 43.142000000000024 C 24.250999999999987 42.87100000000002 24.247999999999987 42.681000000000026 24.434999999999988 42.43600000000002 C 25.011 41.679 25.557 40.897 26.162 40.06 z" stroke-linecap="round" />
</g>
		<g transform="matrix(1.81 0 0 1.81 7.04 -16.15)"  >
<path style="stroke: none; stroke-width: 1; stroke-dasharray: none; stroke-linecap: butt; stroke-dashoffset: 0; stroke-linejoin: miter; stroke-miterlimit: 4; fill: rgb(52,209,201); fill-rule: evenodd; opacity: 1;" vector-effect="non-scaling-stroke"  transform=" translate(-53.82, -40.21)" d="M 74.473 53.847 C 73.127 53.432 71.90899999999999 53.058 70.691 52.679 C 61.231 49.736000000000004 51.774 46.789 42.31100000000001 43.859 C 41.86000000000001 43.72 41.56900000000001 43.494 41.31300000000001 43.102000000000004 C 38.665000000000006 39.035000000000004 36.00200000000001 34.977000000000004 33.32800000000001 30.927000000000003 C 33.12100000000001 30.615000000000002 33.12500000000001 30.423000000000002 33.34700000000001 30.128000000000004 C 34.214000000000006 28.973000000000003 35.05000000000001 27.795 35.94200000000001 26.565000000000005 C 36.06900000000001 26.720000000000006 36.17700000000001 26.847000000000005 36.28000000000001 26.979000000000006 C 38.57900000000001 29.964000000000006 40.87400000000001 32.952000000000005 43.18400000000001 35.92700000000001 C 43.35100000000001 36.141000000000005 43.60800000000001 36.334 43.863000000000014 36.42400000000001 C 52.512000000000015 39.49000000000001 61.164000000000016 42.54600000000001 69.82300000000001 45.58800000000001 C 70.25900000000001 45.74100000000001 70.513 45.98000000000001 70.71600000000001 46.385000000000005 C 71.858 48.679 73.02600000000001 50.96000000000001 74.18400000000001 53.246 C 74.263 53.404 74.336 53.564 74.473 53.847 z" stroke-linecap="round" />
</g>
		<g transform="matrix(1.81 0 0 1.81 -15.55 27.58)"  >
<path style="stroke: none; stroke-width: 1; stroke-dasharray: none; stroke-linecap: butt; stroke-dashoffset: 0; stroke-linejoin: miter; stroke-miterlimit: 4; fill: rgb(16,105,100); fill-rule: evenodd; opacity: 1;" vector-effect="non-scaling-stroke"  transform=" translate(-40.99, -65.19)" d="M 22.501 45.12 C 23.045 46.674 23.554000000000002 48.122 24.062 49.571999999999996 C 27.227 58.629999999999995 30.395000000000003 67.68799999999999 33.551 76.75 C 33.685 77.135 33.858000000000004 77.292 34.28 77.343 C 38.082 77.803 41.882000000000005 78.292 45.681 78.778 C 49.641 79.283 53.601 79.79400000000001 57.562 80.299 C 58.449 80.412 59.333 80.51400000000001 60.218999999999994 80.626 C 60.45099999999999 80.656 60.681999999999995 80.70100000000001 61.062999999999995 80.765 C 60.791 80.891 60.657 80.96 60.516 81.018 C 57.199 82.372 53.873999999999995 83.711 50.569 85.094 C 49.908 85.371 49.288000000000004 85.20599999999999 48.658 85.154 C 45.277 84.857 41.9 84.52799999999999 38.522000000000006 84.208 C 36.517 84.018 34.51200000000001 83.832 32.510000000000005 83.614 C 32.357000000000006 83.599 32.15200000000001 83.369 32.098000000000006 83.2 C 31.196000000000005 80.37400000000001 30.316000000000006 77.542 29.426000000000005 74.712 C 26.622000000000007 65.789 23.818000000000005 56.867000000000004 20.997000000000007 47.95100000000001 C 20.869000000000007 47.54500000000001 20.903000000000006 47.263000000000005 21.16400000000001 46.93800000000001 C 21.611 46.38 22.012 45.791 22.501 45.12 z" stroke-linecap="round" />
</g>
		<g transform="matrix(1.81 0 0 1.81 5.98 -40.52)"  >
<path style="stroke: none; stroke-width: 1; stroke-dasharray: none; stroke-linecap: butt; stroke-dashoffset: 0; stroke-linejoin: miter; stroke-miterlimit: 4; fill: rgb(52,209,201); fill-rule: evenodd; opacity: 1;" vector-effect="non-scaling-stroke"  transform=" translate(-52.53, -27.19)" d="M 42.671 17.277 C 44.003 18.451 45.249 19.593 46.548 20.672 C 47.023 21.067 47.601 21.361 48.17 21.615000000000002 C 52.287 23.454 56.410000000000004 25.274 60.536 27.092000000000002 C 60.876000000000005 27.242 61.114000000000004 27.444000000000003 61.286 27.788000000000004 C 62.777 30.760000000000005 64.288 33.721000000000004 65.792 36.685 C 65.85000000000001 36.799 65.895 36.92 65.97800000000001 37.108000000000004 C 65.792 37.050000000000004 65.66100000000002 37.02 65.53600000000002 36.970000000000006 C 58.87400000000002 34.328 52.213000000000015 31.685000000000006 45.555000000000014 29.036000000000005 C 45.35100000000001 28.955000000000005 45.137000000000015 28.840000000000003 44.98900000000001 28.682000000000006 C 43.06600000000001 26.609000000000005 41.15400000000001 24.527000000000005 39.23900000000001 22.446000000000005 C 39.18500000000001 22.388000000000005 39.14100000000001 22.321000000000005 39.07700000000001 22.235000000000007 C 40.269 20.59 41.456 18.952 42.671 17.277 z" stroke-linecap="round" />
</g>
		<g transform="matrix(1.81 0 0 1.81 -38.25 38.77)"  >
<path style="stroke: none; stroke-width: 1; stroke-dasharray: none; stroke-linecap: butt; stroke-dashoffset: 0; stroke-linejoin: miter; stroke-miterlimit: 4; fill: rgb(11,77,73); fill-rule: evenodd; opacity: 1;" vector-effect="non-scaling-stroke"  transform=" translate(-28.27, -71.46)" d="M 38.015 90.19 C 35.319 91.289 32.623 92.38499999999999 29.880000000000003 93.502 C 29.537000000000003 92.22699999999999 29.201000000000004 90.996 28.873 89.764 C 25.443 76.89 22.015 64.015 18.575000000000003 51.142999999999994 C 18.485000000000003 50.80499999999999 18.516000000000002 50.556999999999995 18.739000000000004 50.297 C 18.956000000000003 50.044999999999995 19.141000000000005 49.763999999999996 19.399000000000004 49.418 C 19.768000000000004 50.705999999999996 20.112000000000005 51.897999999999996 20.450000000000003 53.092999999999996 C 23.868000000000002 65.128 27.286 77.164 30.698 89.203 C 30.781 89.497 30.904 89.62 31.219 89.64 C 33.327 89.76 35.433 89.901 37.541000000000004 90.037 C 37.698 90.04700000000001 37.854000000000006 90.07100000000001 38.010000000000005 90.09 C 38.012 90.125 38.014 90.157 38.015 90.19 z" stroke-linecap="round" />
</g>
		<g transform="matrix(1.81 0 0 1.81 3.25 -69.55)"  >
<path style="stroke: none; stroke-width: 1; stroke-dasharray: none; stroke-linecap: butt; stroke-dashoffset: 0; stroke-linejoin: miter; stroke-miterlimit: 4; fill: rgb(52,209,201); fill-rule: evenodd; opacity: 1;" vector-effect="non-scaling-stroke"  transform=" translate(-51.1, -11.53)" d="M 55.457 16.57 C 52.546 14.972 49.35 13.901 46.665 11.766 C 47.921 10.03 49.173 8.301 50.481 6.496 C 52.189 9.863 53.863 13.163 55.538000000000004 16.464 C 55.51 16.5 55.483 16.535 55.457 16.57 z" stroke-linecap="round" />
</g>
</g>
</g>
</svg>